<svg width="40" height="40" viewBox="0 0 40 40" fill="none" xmlns="http://www.w3.org/2000/svg">
<path d="M40 13.88C39.974 13.6963 39.9237 13.5153 39.85 13.34V13.16C39.7298 12.9544 39.5695 12.7653 39.375 12.6L24.375 0.6C24.1683 0.444432 23.9321 0.316162 23.675 0.22C23.6004 0.21152 23.5246 0.21152 23.45 0.22C23.196 0.103483 22.9156 0.0286884 22.625 0H7.5C5.51088 0 3.60322 0.632141 2.1967 1.75736C0.790177 2.88258 0 4.4087 0 6V34C0 35.5913 0.790177 37.1174 2.1967 38.2426C3.60322 39.3679 5.51088 40 7.5 40H32.5C34.4891 40 36.3968 39.3679 37.8033 38.2426C39.2098 37.1174 40 35.5913 40 34V14V13.88ZM25 6.82L31.475 12H27.5C26.837 12 26.2011 11.7893 25.7322 11.4142C25.2634 11.0391 25 10.5304 25 10V6.82ZM35 34C35 34.5304 34.7366 35.0391 34.2678 35.4142C33.7989 35.7893 33.163 36 32.5 36H7.5C6.83696 36 6.20107 35.7893 5.73223 35.4142C5.26339 35.0391 5 34.5304 5 34V6C5 5.46957 5.26339 4.96086 5.73223 4.58579C6.20107 4.21071 6.83696 4 7.5 4H20V10C20 11.5913 20.7902 13.1174 22.1967 14.2426C23.6032 15.3679 25.5109 16 27.5 16H35V34ZM25.725 20.58L17.5 27.18L14.275 24.58C13.8042 24.2034 13.1658 23.9918 12.5 23.9918C11.8342 23.9918 11.1958 24.2034 10.725 24.58C10.2542 24.9566 9.98977 25.4674 9.98977 26C9.98977 26.5326 10.2542 27.0434 10.725 27.42L15.725 31.42C15.9574 31.6075 16.2339 31.7562 16.5386 31.8578C16.8432 31.9593 17.17 32.0116 17.5 32.0116C17.83 32.0116 18.1568 31.9593 18.4614 31.8578C18.7661 31.7562 19.0426 31.6075 19.275 31.42L29.275 23.42C29.7458 23.0434 30.0102 22.5326 30.0102 22C30.0102 21.4674 29.7458 20.9566 29.275 20.58C28.8042 20.2034 28.1658 19.9918 27.5 19.9918C26.8342 19.9918 26.1958 20.2034 25.725 20.58Z" fill="#FF847C"/>
</svg>
