<svg width="40" height="40" viewBox="0 0 40 40" fill="none" xmlns="http://www.w3.org/2000/svg">
<path d="M39.9317 9.80041C39.8949 9.46434 39.7642 9.14219 39.5518 8.86414C39.3394 8.58608 39.0523 8.36121 38.7174 8.21058L20.9905 0.21141C20.6826 0.0723835 20.3431 0 19.9989 0C19.6546 0 19.3151 0.0723835 19.0073 0.21141L1.28037 8.21058C0.946385 8.36207 0.660182 8.58721 0.448298 8.86513C0.236414 9.14305 0.105708 9.46475 0.0682965 9.80041C0.043922 10.0144 -2.06115 31.3322 19.1004 39.8253C19.3831 39.9404 19.6898 40 20 40C20.3102 40 20.6169 39.9404 20.8996 39.8253C42.0611 31.3322 39.9561 10.0164 39.9317 9.80041ZM20 35.7917C5.00081 29.2484 4.29173 15.2838 4.41361 11.2703L20 4.23699L35.5753 11.2663C35.6573 15.2438 34.8485 29.3004 20 35.7917Z" fill="#FF847C"/>
<path d="M17.8755 22.0573L13.004 15.6172L10 19.5885L17.8755 30L30 13.9714L26.996 10L17.8755 22.0573Z" fill="#FF847C"/>
</svg>
