<svg width="61" height="61" viewBox="0 0 61 61" fill="none" xmlns="http://www.w3.org/2000/svg">
<path d="M30.5 38.375C34.8492 38.375 38.375 34.8492 38.375 30.5C38.375 26.1508 34.8492 22.625 30.5 22.625C26.1508 22.625 22.625 26.1508 22.625 30.5C22.625 34.8492 26.1508 38.375 30.5 38.375Z" stroke="#FF847C" stroke-width="3" stroke-linecap="round" stroke-linejoin="round"/>
<path d="M49.925 38.375C49.5756 39.1667 49.4713 40.045 49.6257 40.8965C49.7801 41.7481 50.1861 42.5338 50.7912 43.1525L50.9488 43.31C51.4369 43.7976 51.8241 44.3766 52.0883 45.0139C52.3525 45.6513 52.4885 46.3344 52.4885 47.0244C52.4885 47.7143 52.3525 48.3975 52.0883 49.0348C51.8241 49.6722 51.4369 50.2512 50.9488 50.7387C50.4612 51.2269 49.8822 51.6141 49.2448 51.8783C48.6075 52.1425 47.9243 52.2785 47.2344 52.2785C46.5444 52.2785 45.8613 52.1425 45.2239 51.8783C44.5866 51.6141 44.0076 51.2269 43.52 50.7387L43.3625 50.5812C42.7438 49.9761 41.9581 49.5701 41.1065 49.4157C40.255 49.2613 39.3767 49.3656 38.585 49.715C37.8086 50.0478 37.1465 50.6003 36.6801 51.3045C36.2137 52.0088 35.9634 52.8341 35.96 53.6787V54.125C35.96 55.5174 35.4069 56.8527 34.4223 57.8373C33.4377 58.8219 32.1024 59.375 30.71 59.375C29.3176 59.375 27.9823 58.8219 26.9977 57.8373C26.0131 56.8527 25.46 55.5174 25.46 54.125V53.8887C25.4397 53.0199 25.1584 52.1772 24.6528 51.4703C24.1472 50.7634 23.4407 50.225 22.625 49.925C21.8333 49.5756 20.955 49.4713 20.1035 49.6257C19.2519 49.7801 18.4662 50.1861 17.8475 50.7912L17.69 50.9488C17.2024 51.4369 16.6234 51.8241 15.9861 52.0883C15.3487 52.3525 14.6656 52.4885 13.9756 52.4885C13.2857 52.4885 12.6025 52.3525 11.9652 52.0883C11.3278 51.8241 10.7488 51.4369 10.2612 50.9488C9.77312 50.4612 9.38589 49.8822 9.12169 49.2448C8.85748 48.6075 8.72149 47.9243 8.72149 47.2344C8.72149 46.5444 8.85748 45.8613 9.12169 45.2239C9.38589 44.5866 9.77312 44.0076 10.2612 43.52L10.4187 43.3625C11.0239 42.7438 11.4299 41.9581 11.5843 41.1065C11.7387 40.255 11.6344 39.3767 11.285 38.585C10.9522 37.8086 10.3997 37.1465 9.69547 36.6801C8.99121 36.2137 8.16594 35.9634 7.32125 35.96H6.875C5.48261 35.96 4.14726 35.4069 3.16269 34.4223C2.17812 33.4377 1.625 32.1024 1.625 30.71C1.625 29.3176 2.17812 27.9823 3.16269 26.9977C4.14726 26.0131 5.48261 25.46 6.875 25.46H7.11125C7.98011 25.4397 8.82276 25.1584 9.52966 24.6528C10.2366 24.1472 10.775 23.4407 11.075 22.625C11.4244 21.8333 11.5287 20.955 11.3743 20.1035C11.2199 19.2519 10.8139 18.4662 10.2087 17.8475L10.0513 17.69C9.56312 17.2024 9.17589 16.6234 8.91169 15.9861C8.64748 15.3487 8.5115 14.6656 8.5115 13.9756C8.5115 13.2857 8.64748 12.6025 8.91169 11.9652C9.17589 11.3278 9.56312 10.7488 10.0513 10.2612C10.5388 9.77312 11.1178 9.38589 11.7552 9.12169C12.3925 8.85748 13.0757 8.72149 13.7656 8.72149C14.4556 8.72149 15.1387 8.85748 15.7761 9.12169C16.4134 9.38589 16.9924 9.77312 17.48 10.2612L17.6375 10.4187C18.2562 11.0239 19.0419 11.4299 19.8935 11.5843C20.745 11.7387 21.6233 11.6344 22.415 11.285H22.625C23.4014 10.9522 24.0635 10.3997 24.5299 9.69547C24.9963 8.99121 25.2466 8.16594 25.25 7.32125V6.875C25.25 5.48261 25.8031 4.14726 26.7877 3.16269C27.7723 2.17812 29.1076 1.625 30.5 1.625C31.8924 1.625 33.2277 2.17812 34.2123 3.16269C35.1969 4.14726 35.75 5.48261 35.75 6.875V7.11125C35.7534 7.95594 36.0037 8.78121 36.4701 9.48547C36.9365 10.1897 37.5986 10.7422 38.375 11.075C39.1667 11.4244 40.045 11.5287 40.8965 11.3743C41.7481 11.2199 42.5338 10.8139 43.1525 10.2087L43.31 10.0513C43.7976 9.56312 44.3766 9.17589 45.0139 8.91169C45.6513 8.64748 46.3344 8.5115 47.0244 8.5115C47.7143 8.5115 48.3975 8.64748 49.0348 8.91169C49.6722 9.17589 50.2512 9.56312 50.7387 10.0513C51.2269 10.5388 51.6141 11.1178 51.8783 11.7552C52.1425 12.3925 52.2785 13.0757 52.2785 13.7656C52.2785 14.4556 52.1425 15.1387 51.8783 15.7761C51.6141 16.4134 51.2269 16.9924 50.7387 17.48L50.5812 17.6375C49.9761 18.2562 49.5701 19.0419 49.4157 19.8935C49.2613 20.745 49.3656 21.6233 49.715 22.415V22.625C50.0478 23.4014 50.6003 24.0635 51.3045 24.5299C52.0088 24.9963 52.8341 25.2466 53.6787 25.25H54.125C55.5174 25.25 56.8527 25.8031 57.8373 26.7877C58.8219 27.7723 59.375 29.1076 59.375 30.5C59.375 31.8924 58.8219 33.2277 57.8373 34.2123C56.8527 35.1969 55.5174 35.75 54.125 35.75H53.8887C53.0441 35.7534 52.2188 36.0037 51.5145 36.4701C50.8103 36.9365 50.2578 37.5986 49.925 38.375V38.375Z" stroke="#FF847C" stroke-width="3" stroke-linecap="round" stroke-linejoin="round"/>
</svg>
