<svg width="63" height="63" viewBox="0 0 63 63" fill="none" xmlns="http://www.w3.org/2000/svg">
<path d="M42 52.5H21V15.75H42V52.5ZM43.7588 10.5H39.375V5.25H23.625V10.5H19.2412C17.325 10.5 15.75 12.075 15.75 13.9913V54.2588C15.75 56.175 17.325 57.75 19.2412 57.75H43.7588C45.7013 57.75 47.25 56.2013 47.25 54.2588V13.9913C47.25 12.075 45.675 10.5 43.7588 10.5ZM39.375 42H23.625V49.875H39.375V42ZM39.375 18.375H23.625V26.25H39.375V18.375ZM39.375 30.1875H23.625V38.0625H39.375V30.1875Z" fill="#FF847C"/>
</svg>
