<svg width="63" height="63" viewBox="0 0 63 63" fill="none" xmlns="http://www.w3.org/2000/svg">
<path d="M6.52311 24.2308L25.6864 49.4081L16.4585 24.2308H6.52311ZM31.5 53.4591L42.2351 24.2308H20.7649L31.5 53.4591ZM16.5508 19.3846L22.8258 4.84615H14.7667L5.90792 19.3846H16.5508ZM37.3136 49.4081L56.4769 24.2308H46.5415L37.3136 49.4081ZM21.0109 19.3846H41.9891L35.7141 4.84615H27.2859L21.0109 19.3846ZM46.4492 19.3846H57.0921L48.2333 4.84615H40.1742L46.4492 19.3846ZM50.7863 0.984375L62.5981 20.369C62.8852 20.8233 63.0185 21.3471 62.9979 21.9402C62.9774 22.5334 62.8031 23.0445 62.475 23.4736L32.9457 62.2428C32.5766 62.7476 32.0947 63 31.5 63C30.9053 63 30.4234 62.7476 30.0543 62.2428L0.524966 23.4736C0.196862 23.0445 0.0225571 22.5334 0.00205065 21.9402C-0.0184558 21.3471 0.114836 20.8233 0.401927 20.369L12.2137 0.984375C12.5828 0.328125 13.1057 0 13.7824 0H49.2176C49.8943 0 50.4172 0.328125 50.7863 0.984375Z" fill="#FF847C"/>
</svg>
