<svg width="63" height="63" viewBox="0 0 63 63" fill="none" xmlns="http://www.w3.org/2000/svg">
<path d="M19.6875 47.25C15.8584 47.25 12.1862 45.7289 9.47865 43.0214C6.77109 40.3138 5.25 36.6416 5.25 32.8125C5.25 28.9834 6.77109 25.3112 9.47865 22.6036C12.1862 19.8961 15.8584 18.375 19.6875 18.375H47.25C50.0348 18.375 52.7055 19.4812 54.6746 21.4504C56.6437 23.4195 57.75 26.0902 57.75 28.875C57.75 31.6598 56.6437 34.3305 54.6746 36.2996C52.7055 38.2688 50.0348 39.375 47.25 39.375H24.9375C23.197 39.375 21.5278 38.6836 20.2971 37.4529C19.0664 36.2222 18.375 34.553 18.375 32.8125C18.375 31.072 19.0664 29.4028 20.2971 28.1721C21.5278 26.9414 23.197 26.25 24.9375 26.25H44.625V30.1875H24.9375C24.2413 30.1875 23.5736 30.4641 23.0813 30.9563C22.5891 31.4486 22.3125 32.1163 22.3125 32.8125C22.3125 33.5087 22.5891 34.1764 23.0813 34.6687C23.5736 35.1609 24.2413 35.4375 24.9375 35.4375H47.25C48.1118 35.4375 48.9652 35.2678 49.7614 34.938C50.5576 34.6082 51.281 34.1248 51.8904 33.5154C52.4998 32.906 52.9832 32.1826 53.313 31.3864C53.6428 30.5902 53.8125 29.7368 53.8125 28.875C53.8125 28.0132 53.6428 27.1598 53.313 26.3636C52.9832 25.5674 52.4998 24.844 51.8904 24.2346C51.281 23.6252 50.5576 23.1418 49.7614 22.812C48.9652 22.4822 48.1118 22.3125 47.25 22.3125H19.6875C16.9027 22.3125 14.232 23.4187 12.2629 25.3879C10.2937 27.357 9.1875 30.0277 9.1875 32.8125C9.1875 35.5973 10.2937 38.268 12.2629 40.2371C14.232 42.2063 16.9027 43.3125 19.6875 43.3125H44.625V47.25H19.6875Z" fill="#FF847C"/>
</svg>
