<svg width="63" height="63" viewBox="0 0 63 63" fill="none" xmlns="http://www.w3.org/2000/svg">
<path d="M52.5 15.75C54.0225 15.75 55.2562 16.275 56.2275 17.2987C57.225 18.375 57.75 19.5562 57.75 21V49.875C57.75 51.3187 57.225 52.5 56.2275 53.5762C55.2562 54.6 54.0225 55.125 52.5 55.125H10.5C8.9775 55.125 7.74375 54.6 6.7725 53.5762C5.775 52.5 5.25 51.3187 5.25 49.875V21C5.25 19.5562 5.775 18.375 6.7725 17.2987C7.74375 16.275 8.9775 15.75 10.5 15.75H21V10.5C21 8.9775 21.525 7.74375 22.5225 6.7725C23.4937 5.775 24.7275 5.25 26.25 5.25H36.75C38.2725 5.25 39.5062 5.775 40.4775 6.7725C41.475 7.74375 42 8.9775 42 10.5V15.75H52.5ZM10.5 21V49.875H52.5V21H10.5ZM36.75 15.75V10.5H26.25V15.75H36.75ZM27.4575 45.9375L44.7562 28.6388L41.055 24.9375L27.4575 38.5088L21.9713 33.0487L18.27 36.75L27.4575 45.9375Z" fill="#FF847C"/>
</svg>
