<svg width="63" height="63" viewBox="0 0 63 63" fill="none" xmlns="http://www.w3.org/2000/svg">
<path d="M23.625 26.25V31.5H18.375V26.25H23.625ZM34.125 26.25V31.5H28.875V26.25H34.125ZM44.625 26.25V31.5H39.375V26.25H44.625ZM49.875 7.875C51.2674 7.875 52.6027 8.42812 53.5873 9.41269C54.5719 10.3973 55.125 11.7326 55.125 13.125V49.875C55.125 51.2674 54.5719 52.6027 53.5873 53.5873C52.6027 54.5719 51.2674 55.125 49.875 55.125H13.125C11.7326 55.125 10.3973 54.5719 9.41269 53.5873C8.42812 52.6027 7.875 51.2674 7.875 49.875V13.125C7.875 11.7326 8.42812 10.3973 9.41269 9.41269C10.3973 8.42812 11.7326 7.875 13.125 7.875H15.75V2.625H21V7.875H42V2.625H47.25V7.875H49.875ZM49.875 49.875V21H13.125V49.875H49.875ZM23.625 36.75V42H18.375V36.75H23.625ZM34.125 36.75V42H28.875V36.75H34.125ZM44.625 36.75V42H39.375V36.75H44.625Z" fill="#FF847C"/>
</svg>
