<svg width="41" height="44" viewBox="0 0 41 44" fill="none" xmlns="http://www.w3.org/2000/svg">
<path d="M16 4L37 11L32.5 35L16 41V4Z" fill="#FF847C"/>
<path d="M38.4802 7.19153L22.0802 0.315857C21.5806 0.107334 21.0451 0 20.5043 0C19.9634 0 19.4279 0.107334 18.9283 0.315857L2.52833 7.19153C0.999375 7.82753 0 9.33158 0 10.9989C0 28.0592 9.78021 39.851 18.9198 43.6842C19.9277 44.1053 21.0637 44.1053 22.0717 43.6842C29.3919 40.6159 41 30.0188 41 10.9989C41 9.33158 40.0006 7.82753 38.4802 7.19153ZM20.5085 38.3555L20.5 5.61012L35.5248 11.91C35.2429 24.9222 28.5121 34.3504 20.5085 38.3555Z" fill="#FFFEFF"/>
</svg>
